<svg xmlns="http://www.w3.org/2000/svg" width="16" height="15.989" viewBox="0 0 16 15.989">
  <path id="Vereinigungsmenge_8" data-name="Vereinigungsmenge 8" d="M1151.243-2706.021c-1.547-.006-2.223-.694-2.236-2.247-.014-1.765,0-3.531,0-5.3,0-1.706-.009-3.413,0-5.12.011-1.626.677-2.3,2.3-2.307q5.215-.016,10.429,0c1.582.005,2.26.688,2.265,2.276q.016,5.208,0,10.417c-.005,1.588-.683,2.271-2.265,2.277q-2.622.009-5.244.009T1151.243-2706.021Zm2.515-12.561a2.449,2.449,0,0,0-2.341,2.347,41.013,41.013,0,0,0,0,5.456,2.451,2.451,0,0,0,2.338,2.35,40.5,40.5,0,0,0,5.462.005,2.557,2.557,0,0,0,2.39-2.381l.086-2.7c0-.745.005-1.49,0-2.236a2.983,2.983,0,0,0-.076-.524,2.6,2.6,0,0,0-2.335-2.314c-.931-.063-1.868-.095-2.805-.095C1155.566-2718.672,1154.659-2718.642,1153.758-2718.582Zm.4,9.3a1.664,1.664,0,0,1-1.732-1.718c-.048-1.566-.048-3.136,0-4.7a1.663,1.663,0,0,1,1.733-1.717q2.323-.07,4.65,0a1.709,1.709,0,0,1,1.773,1.808c.038.763.007,1.529.007,2.293h0c0,.765.034,1.531-.008,2.293a1.7,1.7,0,0,1-1.769,1.75q-1.15.032-2.3.032Q1155.335-2709.249,1154.161-2709.283Zm-.374-4.047a2.771,2.771,0,0,0,2.723,2.688,2.771,2.771,0,0,0,2.706-2.706,2.772,2.772,0,0,0-2.694-2.718h-.026A2.772,2.772,0,0,0,1153.786-2713.33Zm1.1-.026a1.582,1.582,0,0,1,1.6-1.608,1.583,1.583,0,0,1,1.625,1.585,1.582,1.582,0,0,1-1.571,1.637h-.039A1.581,1.581,0,0,1,1154.888-2713.356Z" transform="translate(-1148.504 2721.5)" fill="#7000ff" stroke="#ебе6е6" stroke-miterlimit="10" stroke-width="1"/>
</svg>
